<svg xmlns="http://www.w3.org/2000/svg" xmlns:xlink="http://www.w3.org/1999/xlink" viewBox="0 0 1260 770" width="1260" height="770" preserveAspectRatio="xMidYMid meet" style="width: 100%; height: 100%; transform: translate3d(0px, 0px, 0px); content-visibility: visible;"><defs><clipPath id="hp-hero__lottie_element_2"><rect width="1260" height="770" x="0" y="0"></rect></clipPath><radialGradient id="hp-hero__lottie_element_6" spreadMethod="pad" gradientUnits="userSpaceOnUse" cx="-768.1710205078125" cy="265.1310119628906" r="837.2205969078274" fx="-768.1710205078125" fy="265.1310119628906"><stop offset="77%" stop-color="rgb(47,49,51)"></stop><stop offset="87%" stop-color="rgb(47,49,51)"></stop><stop offset="100%" stop-color="rgb(47,49,51)"></stop></radialGradient><mask id="hp-hero__lottie_element_8"><path fill="url(#hp-hero__lottie_element_7)" d=" M0,-360 C198.6840057373047,-360 360,-198.6840057373047 360,0 C360,198.6840057373047 198.6840057373047,360 0,360 C-198.6840057373047,360 -360,198.6840057373047 -360,0 C-360,-198.6840057373047 -198.6840057373047,-360 0,-360z"></path></mask><radialGradient id="hp-hero__lottie_element_7" spreadMethod="pad" gradientUnits="userSpaceOnUse" cx="-768.1710205078125" cy="265.1310119628906" r="837.2205969078274" fx="-768.1710205078125" fy="265.1310119628906"><stop stop-color="rgb(255,255,255)" offset="77%" stop-opacity="1"></stop><stop stop-color="rgb(255,255,255)" offset="86%" stop-opacity="0.5"></stop><stop stop-color="rgb(255,255,255)" offset="100%" stop-opacity="0"></stop></radialGradient><linearGradient id="hp-hero__lottie_element_12" spreadMethod="pad" gradientUnits="userSpaceOnUse" x1="-470" y1="0" x2="46" y2="0"><stop offset="0%" stop-color="rgb(62,141,255)" stop-opacity="1"></stop><stop offset="40%" stop-color="rgb(68,185,230)" stop-opacity="0.5"></stop><stop offset="100%" stop-color="rgb(73,230,205)" stop-opacity="0"></stop></linearGradient><linearGradient id="hp-hero__lottie_element_16" spreadMethod="pad" gradientUnits="userSpaceOnUse" x1="-23" y1="0" x2="360" y2="0"><stop offset="0%" stop-color="rgb(73,230,205)" stop-opacity="0"></stop><stop offset="60%" stop-color="rgb(68,185,230)" stop-opacity="0.5"></stop><stop offset="100%" stop-color="rgb(62,141,255)" stop-opacity="1"></stop></linearGradient><linearGradient id="hp-hero__lottie_element_20" spreadMethod="pad" gradientUnits="userSpaceOnUse" x1="-360" y1="0" x2="360" y2="0"><stop offset="0%" stop-color="rgb(73,230,205)" stop-opacity="1"></stop><stop offset="20%" stop-color="rgb(65,154,230)" stop-opacity="0.5"></stop><stop offset="50%" stop-color="rgb(57,78,255)" stop-opacity="0"></stop><stop offset="80%" stop-color="rgb(57,78,255)" stop-opacity="0.5"></stop><stop offset="100%" stop-color="rgb(57,78,255)" stop-opacity="1"></stop></linearGradient><linearGradient id="hp-hero__lottie_element_24" spreadMethod="pad" gradientUnits="userSpaceOnUse" x1="-360" y1="0" x2="360" y2="0"><stop offset="0%" stop-color="rgb(73,230,205)" stop-opacity="1"></stop><stop offset="20%" stop-color="rgb(65,154,230)" stop-opacity="0.5"></stop><stop offset="50%" stop-color="rgb(57,78,255)" stop-opacity="0"></stop><stop offset="80%" stop-color="rgb(57,78,255)" stop-opacity="0.5"></stop><stop offset="100%" stop-color="rgb(57,78,255)" stop-opacity="1"></stop></linearGradient><radialGradient id="hp-hero__lottie_element_31" spreadMethod="pad" gradientUnits="userSpaceOnUse" cx="0" cy="0" r="340.37298583984375" fx="0" fy="0"><stop offset="56%" stop-color="rgb(53,81,248)"></stop><stop offset="83%" stop-color="rgb(55,80,251)"></stop><stop offset="100%" stop-color="rgb(56,79,255)"></stop></radialGradient><mask id="hp-hero__lottie_element_33"><path fill="url(#hp-hero__lottie_element_32)" d=" M0,-342.6499938964844 C189.10853576660156,-342.6499938964844 342.6499938964844,-189.10853576660156 342.6499938964844,0 C342.6499938964844,189.10853576660156 189.10853576660156,342.6499938964844 0,342.6499938964844 C-189.10853576660156,342.6499938964844 -342.6499938964844,189.10853576660156 -342.6499938964844,0 C-342.6499938964844,-189.10853576660156 -189.10853576660156,-342.6499938964844 0,-342.6499938964844z"></path></mask><radialGradient id="hp-hero__lottie_element_32" spreadMethod="pad" gradientUnits="userSpaceOnUse" cx="0" cy="0" r="340.37298583984375" fx="0" fy="0"><stop stop-color="rgb(255,255,255)" offset="56%" stop-opacity="1"></stop><stop stop-color="rgb(255,255,255)" offset="84%" stop-opacity="0.5"></stop><stop stop-color="rgb(255,255,255)" offset="100%" stop-opacity="0"></stop></radialGradient></defs><g clip-path="url(#hp-hero__lottie_element_2)"><g transform="matrix(1.0499999523162842,0,0,1.0499999523162842,755.9609985351562,384)" opacity="1" style="display: block;"><g opacity="1" transform="matrix(1,0,0,1,0,0)"><g opacity="1" transform="matrix(1,0,0,1,0,-1)"><path fill="url(#hp-hero__lottie_element_31)" mask="url(#hp-hero__lottie_element_33)" fill-rule="evenodd" fill-opacity="0" d="M0 0 M0,-342.6499938964844 C189.10853576660156,-342.6499938964844 342.6499938964844,-189.10853576660156 342.6499938964844,0 C342.6499938964844,189.10853576660156 189.10853576660156,342.6499938964844 0,342.6499938964844 C-189.10853576660156,342.6499938964844 -342.6499938964844,189.10853576660156 -342.6499938964844,0 C-342.6499938964844,-189.10853576660156 -189.10853576660156,-342.6499938964844 0,-342.6499938964844z"></path></g></g></g><g transform="matrix(1,0,0,1,630,384)" opacity="0.011840454545454406" style="display: none;"><g opacity="1" transform="matrix(1,0,0,1,0,0)"><path fill="rgb(47,49,51)" fill-opacity="1" d=" M0,-360 C198.6840057373047,-360 360,-198.6840057373047 360,0 C360,198.6840057373047 198.6840057373047,360 0,360 C-198.6840057373047,360 -360,198.6840057373047 -360,0 C-360,-198.6840057373047 -198.6840057373047,-360 0,-360z"></path></g></g><g transform="matrix(1,0,0,1,866,384)" opacity="1" style="display: block;"><g opacity="1" transform="matrix(1,0,0,1,0,0)"><path fill="url(#hp-hero__lottie_element_24)" fill-opacity="1" d=" M0,-360 C198.6840057373047,-360 360,-198.6840057373047 360,0 C360,198.6840057373047 198.6840057373047,360 0,360 C-198.6840057373047,360 -360,198.6840057373047 -360,0 C-360,-198.6840057373047 -198.6840057373047,-360 0,-360z"></path></g></g><g transform="matrix(-1,0,0,-1,394,384)" opacity="1" style="display: block;"><g opacity="1" transform="matrix(1,0,0,1,0,0)"><path fill="url(#hp-hero__lottie_element_20)" fill-opacity="1" d=" M0,-360 C198.6840057373047,-360 360,-198.6840057373047 360,0 C360,198.6840057373047 198.6840057373047,360 0,360 C-198.6840057373047,360 -360,198.6840057373047 -360,0 C-360,-198.6840057373047 -198.6840057373047,-360 0,-360z"></path></g></g><g transform="matrix(0.9999932646751404,0,0,0.9999932646751404,630,384)" opacity="1" style="display: block;"><g opacity="1" transform="matrix(1,0,0,1,0,0)"><path fill="url(#hp-hero__lottie_element_16)" fill-opacity="0.9999992415209501" d=" M0,-360 C198.6840057373047,-360 360,-198.6840057373047 360,0 C360,198.6840057373047 198.6840057373047,360 0,360 C-198.6840057373047,360 -360,198.6840057373047 -360,0 C-360,-198.6840057373047 -198.6840057373047,-360 0,-360z"></path></g></g><g transform="matrix(1,0,0,1,630,384)" opacity="1" style="display: block;"><g opacity="1" transform="matrix(1,0,0,1,0,0)"><path fill="url(#hp-hero__lottie_element_12)" fill-opacity="1" d=" M0,-360 C198.6840057373047,-360 360,-198.6840057373047 360,0 C360,198.6840057373047 198.6840057373047,360 0,360 C-198.6840057373047,360 -360,198.6840057373047 -360,0 C-360,-198.6840057373047 -198.6840057373047,-360 0,-360z"></path></g></g><g transform="matrix(0.9848077297210693,0.1736481785774231,-0.1736481785774231,0.9848077297210693,630,384)" opacity="1" style="display: block;"><g opacity="1" transform="matrix(1,0,0,1,0,0)"><path fill="url(#hp-hero__lottie_element_6)" mask="url(#hp-hero__lottie_element_8)" fill-opacity="0" d="M0 0 M0,-360 C198.6840057373047,-360 360,-198.6840057373047 360,0 C360,198.6840057373047 198.6840057373047,360 0,360 C-198.6840057373047,360 -360,198.6840057373047 -360,0 C-360,-198.6840057373047 -198.6840057373047,-360 0,-360z"></path></g></g></g></svg>
